<?xml version="1.0" encoding="UTF-8" standalone="no"?>
<!-- Created with Inkscape (http://www.inkscape.org/) -->

<svg
   version="1.1"
   id="svg1"
   width="318.56506"
   height="185.00883"
   viewBox="0 0 318.56506 185.00883"
   sodipodi:docname="logo_molly.png"
   inkscape:version="1.3.2 (091e20e, 2023-11-25)"
   inkscape:export-filename="logo_molly_copia.svg"
   inkscape:export-xdpi="96"
   inkscape:export-ydpi="96"
   inkscape:dataloss="true"
   xmlns:inkscape="http://www.inkscape.org/namespaces/inkscape"
   xmlns:sodipodi="http://sodipodi.sourceforge.net/DTD/sodipodi-0.dtd"
   xmlns="http://www.w3.org/2000/svg"
   xmlns:svg="http://www.w3.org/2000/svg">
  <defs
     id="defs1">
    <inkscape:path-effect
       effect="fillet_chamfer"
       id="path-effect7"
       is_visible="true"
       lpeversion="1"
       nodesatellites_param="F,0,1,1,0,0,0,1 @ F,0,0,1,0,0,0,1 @ F,0,0,1,0,0,0,1 @ F,0,0,1,0,0,0,1 @ F,0,0,1,0,0,0,1 @ F,0,0,1,0,0,0,1"
       radius="0"
       unit="px"
       method="auto"
       mode="F"
       chamfer_steps="1"
       flexible="false"
       use_knot_distance="true"
       apply_no_radius="true"
       apply_with_radius="true"
       only_selected="false"
       hide_knots="false" />
  </defs>
  <sodipodi:namedview
     id="namedview1"
     pagecolor="#ffffff"
     bordercolor="#000000"
     borderopacity="0.25"
     inkscape:showpageshadow="2"
     inkscape:pageopacity="0.0"
     inkscape:pagecheckerboard="0"
     inkscape:deskcolor="#d1d1d1"
     showgrid="false"
     inkscape:zoom="2.1666874"
     inkscape:cx="158.76771"
     inkscape:cy="90.460671"
     inkscape:window-width="1440"
     inkscape:window-height="757"
     inkscape:window-x="0"
     inkscape:window-y="25"
     inkscape:window-maximized="0"
     inkscape:current-layer="g1" />
  <g
     inkscape:groupmode="layer"
     id="layer1"
     inkscape:label="Spheres"
     style="display:inline"
     transform="translate(-14.338707,-14.655531)">
    <circle
       style="display:inline;fill:#cb3c33;fill-opacity:1;stroke-width:0.475307"
       id="circle3"
       cx="163.69565"
       cy="42.054653"
       r="27.399122" />
    <circle
       style="fill:#389826;fill-opacity:1;stroke-width:0.692278"
       id="circle4"
       cx="247.54631"
       cy="99.927628"
       r="39.906467" />
    <path
       d="m 275.06726,120.45855 c 0.41314,-0.45 1.24296,-1.80279 1.84404,-3.0062 0.60107,-1.20341 1.51396,-3.57614 2.02864,-5.27273 0.51468,-1.69659 1.20514,-4.63925 1.53435,-6.53925 0.43316,-2.49987 0.54324,-4.61021 0.39836,-7.636381 -0.11595,-2.421688 -0.51848,-5.400709 -0.95637,-7.07773 -0.41589,-1.592752 -0.94163,-3.065479 -1.16831,-3.272727 -0.30077,-0.27498 -0.34088,-0.180267 -0.14842,0.350458 0.14506,0.4 0.4411,2.271372 0.65787,4.158605 0.29089,2.53256 0.28287,4.379557 -0.0306,7.051462 -0.24983,2.129363 -0.93928,5.157833 -1.67423,7.354183 -0.68722,2.05372 -1.82256,4.85329 -2.52299,6.22127 -0.70043,1.36797 -1.77283,3.22358 -2.38311,4.12358 -0.64127,0.9457 -1.08913,2.10997 -1.11116,2.75758 -0.0399,1.17145 0.89938,1.60606 1.63203,1.60606 0.72628,0 1.42498,-0.30089 1.89991,-0.81818 z m -9.89713,-2.26775 c 0,-1.09051 -0.15737,-1.47987 -0.63531,-1.57191 -0.41145,-0.0792 -0.76063,0.20729 -0.991,0.8132 -0.34369,0.90399 -0.46025,0.93555 -3.4556,0.93555 -3.02157,0 -3.09991,-0.0219 -3.09991,-0.86457 0,-0.47551 0.26487,-1.08914 0.5886,-1.36363 0.32373,-0.27449 1.75281,-1.15922 3.17573,-1.96607 1.49228,-0.84618 2.93594,-1.98462 3.41139,-2.69014 0.45336,-0.67273 0.82428,-1.62421 0.82428,-2.11441 0,-0.4902 -0.25096,-1.42014 -0.5577,-2.06653 -0.32158,-0.67768 -1.09659,-1.43224 -1.83052,-1.78223 -0.70005,-0.33383 -1.96272,-0.60635 -2.80594,-0.60561 -0.87838,7.8e-4 -2.03028,0.3045 -2.69728,0.71119 -0.64029,0.39041 -1.4294,1.22275 -1.75358,1.84965 -0.32418,0.62689 -0.5009,1.37049 -0.3927,1.65244 0.10819,0.28195 0.4431,0.51264 0.74424,0.51264 0.30114,0 0.82002,-0.82638 1.03033,-1.20637 0.35366,-0.63901 0.92806,-1.23869 1.15662,-1.37534 0.4921,-0.29422 1.15653,-0.31875 2.10653,-0.32182 1.24768,-0.004 1.9292,0.19637 2.45454,0.72171 0.4357,0.43569 0.72728,1.21212 0.72728,1.93661 0,0.78478 -0.28724,1.47822 -0.81818,1.97523 -0.45,0.42124 -1.81796,1.26111 -3.03991,1.86638 -1.22195,0.60527 -2.73558,1.68575 -3.36364,2.40106 -0.87229,0.99349 -1.14191,1.64337 -1.14191,2.75245 v 1.45187 l 5.18182,-0.10089 5.18182,-0.10089 z m -11.87312,-5.24376 c 0.31574,-0.19513 0.43872,-1.28537 0.34211,-3.7007 -3.6e-4,-0.009 0.005,-2.66558 -0.0308,-3.07217 -0.0248,-0.28117 -0.20759,-0.42726 -0.39496,-0.43469 -0.29257,-0.0116 -0.69731,-0.0164 -0.98058,-0.0164 -0.26554,0 -0.63739,0.003 -0.90952,0.0208 -0.26171,0.0169 -0.40176,0.20529 -0.40333,0.4863 -0.003,0.4541 -0.0145,1.18107 -0.0406,1.68294 -0.0215,0.41183 -0.058,1.06689 -0.08,1.53416 -0.0275,0.58592 -0.38518,0.55746 -0.68913,0.55675 -0.30395,-7.1e-4 -5.68538,0 -5.68538,0 -3.66329,0 -5.461,-0.0316 -5.79741,-0.0341 -0.40593,-0.003 -0.51214,-0.3186 -0.5387,-0.55268 -0.003,-0.25 -0.0233,-5.13113 -0.0262,-11.008486 -0.003,-5.0907 0.13398,-9.813555 0.15178,-10.593266 0.0106,-0.466283 0.27288,-0.452522 0.41477,-0.480084 0.28527,-0.05542 0.83558,-0.14621 1.36609,-0.217016 1.418,-0.189259 1.5387,0.07815 1.5387,-1.286213 0,-1.433749 -0.0185,-1.340644 -1.49268,-1.365651 -2.79724,-0.04745 -4.04363,-0.01468 -7.74548,0.05137 -0.77914,0.0139 -1.01985,0.204278 -1.04385,0.502825 -0.0176,0.218935 -0.0222,0.504134 -0.0292,0.801395 -0.0306,1.301448 0.23463,1.311412 1.37078,1.351857 0.47587,0.01694 1.11924,0.0076 1.45305,0.09648 0.20985,0.05587 0.21971,0.168755 0.26103,0.278938 0.0608,0.16216 0.27001,5.40453 0.21591,11.454545 l -0.0943,10.546446 c -0.001,0.28693 -0.21053,0.45647 -0.40101,0.45361 h -1.23195 c 0,0 -0.78688,-0.0368 -1.23711,-0.0359 -0.33735,6.6e-4 -0.43213,0.33052 -0.43341,0.50478 -0.002,0.29471 0.004,0.89266 0.004,0.89266 0.007,0.67209 0.007,1.08254 0.0185,1.33333 0.021,0.44553 0.31612,0.39109 0.53201,0.40065 0.19607,0.009 4.75894,0.18057 10.58201,0.16052 5.82308,-0.02 10.78877,-0.1609 11.03487,-0.313 z"
       style="display:inline;fill:#ffffff"
       id="path1-8"
       inkscape:label="L"
       sodipodi:nodetypes="sssssssssssssssssssssssssssssssssssssssssscccsssssssssszssccsssssssssssscccssssssss" />
    <circle
       style="display:inline;fill:#9558b2;fill-opacity:1;stroke-width:0.363539"
       id="circle5"
       cx="311.94745"
       cy="38.322128"
       r="20.956324" />
    <circle
       style="fill:#4063d8;fill-opacity:1;stroke-width:0.949873"
       id="circle6"
       cx="69.094284"
       cy="144.9088"
       r="54.755577" />
    <path
       d="m 34.996061,173.2806 c 0.459227,-0.45923 0.566988,-1.04142 0.640304,-1.86884 0.05866,-0.66199 -0.07474,-1.65115 -1.194343,-2.77076 -1.067594,-1.06759 -1.920748,-1.36828 -2.825152,-1.36828 -0.657782,0 -1.495215,0.27081 -1.860963,0.60181 -0.42216,0.38205 -0.664997,1.1068 -0.664997,1.98469 0,1.10681 0.105197,1.80676 1.224304,2.98318 1.057164,1.11131 1.852022,1.33941 2.719392,1.33941 0.662365,0 1.541551,-0.48131 1.961455,-0.90121 z m 22.631589,-15.96486 -1.809466,-0.043 -0.09534,-13.54545 c -0.05243,-7.45 0.03742,-13.54546 0.199677,-13.54546 0.162257,0 0.515034,0.61364 0.783951,1.36364 0.268916,0.75 0.871665,2.18182 1.339442,3.18182 0.467777,1 1.167802,2.71818 1.555611,3.81818 0.38781,1.1 1.301568,3.47272 2.030574,5.27272 0.729007,1.8 1.737932,4.25455 2.242058,5.45455 0.504125,1.2 1.12844,2.67273 1.387366,3.27273 0.258926,0.6 0.659894,1.68476 0.891041,2.41057 0.231147,0.72582 0.743491,1.61218 1.138543,1.9697 0.395052,0.35752 1.216165,0.65003 1.824695,0.65003 0.616567,0 1.400948,-0.30857 1.771668,-0.69697 0.365888,-0.38333 1.200541,-2.08788 1.854785,-3.78788 0.654243,-1.7 1.818517,-4.5962 2.587275,-6.436 0.768757,-1.83981 1.397741,-3.44444 1.397741,-3.56586 0,-0.12142 0.717971,-1.88886 1.595491,-3.92763 0.87752,-2.03878 1.789877,-4.36142 2.02746,-5.16142 0.237583,-0.8 0.696888,-1.97635 1.020677,-2.61412 0.32379,-0.63776 0.720524,-1.07811 0.881631,-0.97854 0.161108,0.0996 0.292923,5.46672 0.292923,11.92701 0,6.46028 -0.155985,11.31816 -0.231245,12.25172 l -0.231245,2.86848 H 80.38694 c -0.932815,0 -1.892391,0.19636 -2.132391,0.43636 -0.24,0.24 -0.219828,1.02546 -0.219828,1.74546 0,0.72 -0.02017,1.50545 0.219828,1.74545 0.306336,0.30634 2.343434,0.43636 6.836363,0.43636 4.49293,0 6.530028,-0.13002 6.836364,-0.43636 0.24,-0.24 0.255917,-1.13688 0.255917,-1.99307 0,-1.3175 0.05472,-1.58495 -0.637735,-1.74047 -0.45,-0.10106 -1.554545,-0.22691 -2.454545,-0.27965 l -1.636364,-0.0959 -0.09473,-15.90909 -0.09473,-15.90909 h 1.974082 c 1.085744,0 2.232919,-0.0993 2.549277,-0.22072 0.397956,-0.15271 0.575195,-0.69055 0.575195,-1.74546 0,-0.8386 -0.196364,-1.72109 -0.436364,-1.96109 -0.293455,-0.29346 -1.944658,-0.43637 -5.041869,-0.43637 -4.071678,0 -4.71386,0.0852 -5.540307,0.73532 -0.556437,0.43769 -1.374413,1.87272 -2.020927,3.54545 -0.59737,1.54558 -1.563972,3.87378 -2.148004,5.17378 -0.584033,1.3 -1.274255,3.01818 -1.533828,3.81818 -0.259573,0.8 -0.929925,2.43636 -1.489672,3.63636 -0.559747,1.2 -1.410491,3.24546 -1.890542,4.54546 -0.480051,1.3 -1.343466,3.55 -1.918699,5 -0.575233,1.45 -1.149338,2.63636 -1.275789,2.63636 -0.12645,0 -0.493011,-0.61364 -0.814579,-1.36364 -0.321569,-0.75 -0.98558,-2.50909 -1.475581,-3.90909 -0.490001,-1.4 -1.723949,-4.59091 -2.742106,-7.09091 -1.018158,-2.5 -2.085722,-5.03636 -2.372365,-5.63636 -0.286643,-0.6 -1.30097,-2.97123 -2.254061,-5.26941 -0.95309,-2.29818 -2.102565,-4.54818 -2.554389,-5 -0.771929,-0.77193 -1.11829,-0.8215 -5.74019,-0.8215 -4.866484,0 -4.92098,0.009 -5.13423,0.85878 -0.118547,0.47232 -0.162573,1.41323 -0.09784,2.09091 0,0 -0.002,1.13927 0.49109,1.26085 0.493121,0.12158 1.990248,0.1531 1.990248,0.1531 l 2.363637,0.18182 v 15.81818 15.81818 l -1.636364,0.0959 c -0.9,0.0527 -2.004545,0.17859 -2.454546,0.27965 -0.7121,0.15993 -0.818181,0.41467 -0.818181,1.96471 0,1.08231 0.178311,1.85452 0.454545,1.9685 0.25,0.10315 3.4,0.15769 7,0.12121 0,0 4.56371,0.0427 6.200842,-0.0673 0.947528,-0.0637 0.802061,-1.56358 0.781959,-2.55057 -0.02075,-1.18617 0.152496,-1.6086 -1.16487,-1.71865 -0.490338,-0.041 -1.06303,-0.0518 -1.463011,-0.0504 z m -28.563133,1.72612 c 0.414517,-0.52697 0.750862,-1.30424 0.747434,-1.72727 -0.0034,-0.42303 -0.326682,-1.99642 -0.718344,-3.49642 -0.391661,-1.5 -0.897747,-5.18339 -1.124633,-8.18531 -0.303501,-4.0156 -0.30655,-6.61932 -0.01154,-9.85218 0.220542,-2.41678 0.80441,-5.98449 1.297486,-7.92825 0.498601,-1.96555 1.642991,-5.01696 2.578406,-6.87509 0.925048,-1.83754 1.939067,-3.62735 2.253375,-3.97735 0.336009,-0.37416 0.403147,-0.63636 0.162945,-0.63636 -0.224688,0 -1.08763,0.91927 -1.917647,2.04282 -0.830017,1.12356 -2.135529,3.12931 -2.901136,4.45724 -0.765608,1.32793 -1.962349,4.13139 -2.659425,6.22991 -0.697077,2.09851 -1.513686,5.04276 -1.814687,6.54276 -0.301001,1.5 -0.742397,4.77272 -0.980881,7.27272 -0.238483,2.5 -0.339752,6.42728 -0.225042,8.72728 0.11471,2.3 0.377429,4.73983 0.583819,5.42186 0.20639,0.68203 0.73496,1.62293 1.174599,2.09091 0.462643,0.49246 1.221042,0.85086 1.800473,0.85086 0.648421,0 1.266655,-0.33756 1.754795,-0.95813 z"
       style="display:inline;fill:#ffffff"
       id="path1-5"
       inkscape:label="M"
       sodipodi:nodetypes="sssssssssscssssssssssssssssssssscssssssssscccsssssssssssssssssssssczcccccssssssscsssssssssssssssssssss" />
    <path
       d="m 142.95164,43.046494 c 0,-0.683643 -0.0993,-1.501824 -0.22072,-1.81818 -0.1214,-0.316357 -0.53049,-0.575195 -0.90909,-0.575195 -0.52571,0 -0.68837,0.263426 -0.68837,1.114813 0,0.613148 0.16939,1.43133 0.37643,1.818181 0.20704,0.386852 0.61613,0.703367 0.90909,0.703367 0.36391,0 0.53266,-0.393803 0.53266,-1.242986 z m 1.26652,-9.484284 c 0.42656,-1.4 1.30631,-3.541148 1.95499,-4.758107 0.64868,-1.216959 2.04346,-3.065961 3.09951,-4.108894 1.05605,-1.042932 2.27299,-1.922823 2.7043,-1.955313 0.51109,-0.0385 0.66034,-0.182942 0.42854,-0.414738 -0.2318,-0.231796 -0.80679,-0.140538 -1.65098,0.262029 -0.71243,0.339731 -2.11057,1.380261 -3.10698,2.312288 -0.99641,0.932027 -2.55758,2.891382 -3.46927,4.354123 -0.91169,1.462741 -1.88127,3.402685 -2.15463,4.310987 -0.27336,0.908302 -0.40101,1.901633 -0.28368,2.207404 0.1185,0.308793 0.54438,0.506984 0.95799,0.445811 0.57639,-0.08525 0.91988,-0.685264 1.52021,-2.65559 z"
       style="display:inline;fill:#ffffff"
       id="path1-7" />
    <path
       id="path10"
       style="display:inline;fill:#ffffff;fill-opacity:1;stroke-width:0.987903"
       inkscape:label="O"
       d="m 163.24461,31.207031 a 10.08699,10.08699 0 0 0 -10.0864,10.087891 10.08699,10.08699 0 0 0 10.0864,10.08789 10.08699,10.08699 0 0 0 10.0864,-10.08789 10.08699,10.08699 0 0 0 -10.0864,-10.087891 z m 0,2.964844 a 6.7932792,7.1226501 0 0 1 6.79413,7.123047 6.7932792,7.1226501 0 0 1 -6.79413,7.123047 6.7932792,7.1226501 0 0 1 -6.79413,-7.123047 6.7932792,7.1226501 0 0 1 6.79413,-7.123047 z"
       transform="matrix(0.9877551,0,0,1,1.8753989,0)" />
    <path
       d="m 322.35366,50.871193 c -0.28329,-0.283372 -0.61117,-0.212675 -0.86949,0.04565 -0.20655,0.206557 -0.22155,0.582524 -0.0609,0.89981 0.23928,0.47259 0.93441,0.33787 1.10258,0.05958 0.1704,-0.281997 0.14851,-0.684246 -0.17219,-1.005042 z m 4.70575,-3.624708 c 0.78748,-1.218379 1.62724,-2.88393 1.86614,-3.701224 0.15088,-0.51617 0.29834,-1.298614 0.39593,-2.408049 0.0725,-0.823923 0.0391,-1.107576 0.0392,-1.623393 4.3e-4,-1.4 -0.15503,-2.819735 -0.34545,-3.154966 -0.23903,-0.420791 -0.38248,0.236404 -0.2941,2.538359 0.0381,0.99176 -0.0769,1.937134 -0.23194,2.78448 -0.14014,0.76609 -0.35827,1.611397 -0.85828,2.683112 -0.50872,1.090377 -1.66586,2.656234 -2.47064,3.529315 -0.80477,0.87308 -1.35733,1.758761 -1.22791,1.968179 0.16336,0.26431 0.45858,0.26128 0.9653,-0.0099 0.40148,-0.214868 1.37427,-1.387524 2.16174,-2.605904 z"
       style="display:inline;fill:#ffffff"
       id="path1-6"
       inkscape:label="path1-6"
       sodipodi:nodetypes="ssssssssssssssssss" />
    <path
       d="m 315.16169,47.959717 c 0,-0.499315 -0.28495,-0.767258 -0.90909,-0.854842 -0.5,-0.07016 -1.02931,-0.315617 -1.17625,-0.545454 -0.14694,-0.229837 -0.26807,-1.399704 -0.26917,-2.599703 -0.001,-1.591762 0.50384,-3.242424 1.16016,-4.568892 0.49479,-1 1.43366,-2.640198 2.40731,-4.340198 1.58533,-2.767995 1.89217,-3.102985 2.93708,-3.206502 0.96438,-0.09554 1.1472,-0.253256 1.05384,-0.909091 -0.10599,-0.744477 -0.30392,-0.793498 -3.20388,-0.793498 -2.84848,0 -3.09091,0.05704 -3.09091,0.727273 0,0.477355 0.28116,0.767204 0.81818,0.843473 0.45,0.06391 0.81819,0.330449 0.81819,0.592308 0,0.261859 -0.53182,1.379463 -1.18182,2.483566 -0.65,1.104102 -1.46057,2.514836 -1.80127,3.134965 -0.3407,0.620128 -0.77731,1.127506 -0.97026,1.127506 -0.19294,0 -1.10055,-1.409381 -2.01691,-3.131958 -0.91636,-1.722577 -1.66611,-3.358941 -1.66611,-3.636364 0,-0.277423 0.30977,-0.504405 0.68837,-0.504405 0.3786,0 0.77491,-0.225515 0.88067,-0.501144 0.10577,-0.275629 0.009,-0.684719 -0.21564,-0.90909 -0.23177,-0.231771 -1.63286,-0.407948 -3.24431,-0.407948 -1.61212,0 -2.73768,0.09787 -2.89091,0.363637 -0.15361,0.266428 -0.13461,0.471088 -0.12009,0.81461 0.0105,0.248749 0.47043,0.5344 1.05417,0.636364 0.86133,0.150454 1.36522,0.699326 2.67392,2.912662 0.88693,1.5 2.09342,3.589779 2.6811,4.643954 0.96503,1.73107 1.05823,2.188861 0.96244,4.727272 -0.10438,2.765804 -0.12201,2.812424 -1.10607,2.925653 -0.79008,0.09091 -1,0.303691 -1,1.013646 V 48.8961 c 1.39167,-0.0053 1.67747,-0.04562 3.23139,-0.03769 2.20987,0.01127 3.45081,0.04472 3.46908,-0.01841 0.0683,-0.235992 0.0268,-0.880274 0.0268,-0.880274 z"
       style="display:inline;fill:#ffffff"
       id="path15"
       sodipodi:nodetypes="ssscssssssssssssssscssssssssscssss"
       inkscape:label="Y" />
  </g>
  <g
     inkscape:groupmode="layer"
     id="layer2"
     inkscape:label="Bonds"
     style="display:inline"
     transform="translate(-14.338707,-14.655531)">
    <path
       style="display:inline;fill:#000000;fill-opacity:1"
       d="m 273.21153,69.403183 19.94718,-19.009379 c 0,0 -0.33055,-1.194852 0.56997,-1.639408 0.90053,-0.444556 3.87264,-0.318464 7.31201,3.114101 3.43937,3.432565 3.13944,5.122179 2.84768,5.949621 -0.29176,0.827442 -1.76389,1.01703 -1.76389,1.01703 l -20.74433,19.946756 c 0,0 -1.809,-2.891454 -4.07789,-5.419736 -2.26889,-2.528283 -4.09073,-3.958985 -4.09073,-3.958985 z"
       id="path9"
       sodipodi:nodetypes="cczzzcczc" />
    <path
       style="fill:#000000;fill-opacity:1"
       d="M 139.76365,55.358715 100.40006,98.78987 c 0,0 -3.153458,-1.238032 -2.548774,3.51312 0.666688,5.23834 15.688534,17.58837 16.339594,8.19157 l 40.13041,-42.696792 c 0,0 -5.06207,-1.756076 -9.04545,-5.500958 -3.98338,-3.744883 -5.51219,-6.938095 -5.51219,-6.938095 z"
       id="path6"
       inkscape:path-effect="#path-effect7"
       inkscape:original-d="M 139.76365,55.358715 100.40006,98.78987 c 0,0 -3.153458,-1.238032 -2.548774,3.51312 0.666688,5.23834 15.688534,17.58837 16.339594,8.19157 l 40.13041,-42.696792 c 0,0 -5.06207,-1.756076 -9.04545,-5.500958 -3.98338,-3.744883 -5.51219,-6.938095 -5.51219,-6.938095 z"
       sodipodi:nodetypes="ccscczc" />
    <path
       style="fill:#000000;fill-opacity:1"
       d="M 210.5913,85.098794 181.06446,63.274513 c -0.32146,-0.0012 -4.39966,-0.148614 1.3727,-8.236145 2.79367,-3.914151 6.6983,-7.77803 8.04004,-3.529777 l 28.49405,20.586654 c 0,0 -1.22353,1.05004 -4.38271,5.541507 -3.15918,4.491466 -3.99724,7.462042 -3.99724,7.462042 z"
       id="path8"
       sodipodi:nodetypes="cczcczc" />
  </g>
</svg>
